<svg width="270" height="236" viewBox="0 0 270 236" fill="none" xmlns="http://www.w3.org/2000/svg">
<rect width="270" height="236" fill="black"/>
<circle cx="138" cy="118" r="102.5" stroke="white" stroke-width="10"/>
<rect x="14.5" y="168.5" width="241" height="57" fill="black"/>
<path d="M61.98 181.3V209.5H54.14V198.18H44.58V209.5H36.74V181.3H44.58V191.9H54.14V181.3H61.98ZM79.9866 209.78C77.3466 209.78 74.9199 209.167 72.7066 207.94C70.4932 206.687 68.7332 204.967 67.4266 202.78C66.1466 200.567 65.5066 198.073 65.5066 195.3C65.5066 192.527 66.1466 190.047 67.4266 187.86C68.7332 185.647 70.4932 183.927 72.7066 182.7C74.9199 181.473 77.3466 180.86 79.9866 180.86C82.6532 180.86 85.0799 181.473 87.2666 182.7C89.4799 183.927 91.2266 185.647 92.5066 187.86C93.7866 190.047 94.4266 192.527 94.4266 195.3C94.4266 198.073 93.7866 200.567 92.5066 202.78C91.2266 204.967 89.4799 206.687 87.2666 207.94C85.0532 209.167 82.6266 209.78 79.9866 209.78ZM79.9866 202.5C81.9866 202.5 83.5599 201.847 84.7066 200.54C85.8799 199.233 86.4666 197.487 86.4666 195.3C86.4666 193.06 85.8799 191.3 84.7066 190.02C83.5599 188.713 81.9866 188.06 79.9866 188.06C77.9599 188.06 76.3732 188.713 75.2266 190.02C74.0799 191.3 73.5066 193.06 73.5066 195.3C73.5066 197.513 74.0799 199.273 75.2266 200.58C76.3732 201.86 77.9599 202.5 79.9866 202.5ZM108.591 209.78C105.311 209.78 102.618 209.007 100.511 207.46C98.4043 205.887 97.2709 203.647 97.1109 200.74H105.471C105.551 201.727 105.844 202.447 106.351 202.9C106.858 203.353 107.511 203.58 108.311 203.58C109.031 203.58 109.618 203.407 110.071 203.06C110.551 202.687 110.791 202.18 110.791 201.54C110.791 200.713 110.404 200.073 109.631 199.62C108.858 199.167 107.604 198.66 105.871 198.1C104.031 197.487 102.538 196.9 101.391 196.34C100.271 195.753 99.2843 194.913 98.4309 193.82C97.6043 192.7 97.1909 191.247 97.1909 189.46C97.1909 187.647 97.6443 186.1 98.5509 184.82C99.4576 183.513 100.711 182.527 102.311 181.86C103.911 181.193 105.724 180.86 107.751 180.86C111.031 180.86 113.644 181.633 115.591 183.18C117.564 184.7 118.618 186.847 118.751 189.62H110.231C110.204 188.767 109.938 188.127 109.431 187.7C108.951 187.273 108.324 187.06 107.551 187.06C106.964 187.06 106.484 187.233 106.111 187.58C105.738 187.927 105.551 188.42 105.551 189.06C105.551 189.593 105.751 190.06 106.151 190.46C106.578 190.833 107.098 191.167 107.711 191.46C108.324 191.727 109.231 192.073 110.431 192.5C112.218 193.113 113.684 193.727 114.831 194.34C116.004 194.927 117.004 195.767 117.831 196.86C118.684 197.927 119.111 199.287 119.111 200.94C119.111 202.62 118.684 204.127 117.831 205.46C117.004 206.793 115.791 207.847 114.191 208.62C112.618 209.393 110.751 209.78 108.591 209.78ZM143.996 181.3V187.54H136.476V209.5H128.636V187.54H121.196V181.3H143.996ZM160.416 209.78C157.776 209.78 155.35 209.167 153.136 207.94C150.923 206.687 149.163 204.967 147.856 202.78C146.576 200.567 145.936 198.073 145.936 195.3C145.936 192.527 146.576 190.047 147.856 187.86C149.163 185.647 150.923 183.927 153.136 182.7C155.35 181.473 157.776 180.86 160.416 180.86C163.083 180.86 165.51 181.473 167.696 182.7C169.91 183.927 171.656 185.647 172.936 187.86C174.216 190.047 174.856 192.527 174.856 195.3C174.856 198.073 174.216 200.567 172.936 202.78C171.656 204.967 169.91 206.687 167.696 207.94C165.483 209.167 163.056 209.78 160.416 209.78ZM160.416 202.5C162.416 202.5 163.99 201.847 165.136 200.54C166.31 199.233 166.896 197.487 166.896 195.3C166.896 193.06 166.31 191.3 165.136 190.02C163.99 188.713 162.416 188.06 160.416 188.06C158.39 188.06 156.803 188.713 155.656 190.02C154.51 191.3 153.936 193.06 153.936 195.3C153.936 197.513 154.51 199.273 155.656 200.58C156.803 201.86 158.39 202.5 160.416 202.5ZM200.661 190.7C200.661 192.407 200.261 193.967 199.461 195.38C198.687 196.767 197.501 197.887 195.901 198.74C194.327 199.567 192.394 199.98 190.101 199.98H186.221V209.5H178.381V181.3H190.101C192.367 181.3 194.287 181.7 195.861 182.5C197.461 183.3 198.661 184.407 199.461 185.82C200.261 187.233 200.661 188.86 200.661 190.7ZM189.341 193.74C191.554 193.74 192.661 192.727 192.661 190.7C192.661 188.647 191.554 187.62 189.341 187.62H186.221V193.74H189.341ZM211.65 181.3V209.5H203.81V181.3H211.65ZM233.955 204.9H223.955L222.435 209.5H214.195L224.475 181.3H233.515L243.755 209.5H235.475L233.955 204.9ZM231.995 198.9L228.955 189.78L225.955 198.9H231.995Z" fill="#FFFEFE"/>
<path opacity="0.34" d="M208.188 170.25H194.312V128.065C202.767 132.586 203.021 141.751 203.021 141.751C204.633 128.986 198.762 124.076 194.181 122.18C194.111 121.662 194.012 121.147 193.885 120.64C203.181 113.062 210.5 116.214 210.5 116.214C202.18 106.161 195.08 110.59 191.043 115.076C189.744 113.526 188.122 112.279 186.29 111.423C184.457 110.568 182.46 110.125 180.438 110.125H168.875V91.625C168.875 83.9752 162.652 77.75 155 77.75H152.688V63.875C152.688 61.3844 151.46 58.4175 149.697 56.6577L146.03 52.9877C144.27 51.2302 141.301 50 138.812 50V46.6654C144.978 50.2104 146.518 43.118 152.688 46.6654V34.8369C146.518 31.2919 144.978 38.3843 138.812 34.8369V33.8125C138.812 32.5406 137.77 31.5 136.5 31.5C135.226 31.5 134.188 32.5406 134.188 33.8125V50C131.699 50 128.73 51.2302 126.97 52.9877L123.303 56.6577C121.54 58.4175 120.312 61.3844 120.312 63.875V77.75H118C110.348 77.75 104.125 83.9752 104.125 91.625V110.125H92.5625C90.5398 110.126 88.5418 110.569 86.7088 111.424C84.8759 112.28 83.2525 113.526 81.9527 115.076C77.9197 110.59 70.8181 106.159 62.5 116.214C62.5 116.214 69.8168 113.062 79.1176 120.645C78.9902 121.15 78.8913 121.663 78.8216 122.18C74.2406 124.076 68.3668 128.986 69.9809 141.751C69.9809 141.751 70.233 132.582 78.6898 128.065V170.25H64.8125C63.5383 170.25 62.5 171.293 62.5 172.562V177.188C62.5 178.462 63.5383 179.5 64.8125 179.5H208.188C209.457 179.5 210.5 178.462 210.5 177.188V172.562C210.5 171.293 209.457 170.25 208.188 170.25ZM187.44 126.403C187.826 126.294 188.17 126.167 188.58 126.072C189.357 126.218 190.074 126.407 190.77 126.613C190.943 128.082 191.137 129.95 191.311 132.276H187.317C187.38 130.378 187.419 128.408 187.44 126.403ZM187.299 133.084C189.049 135.301 190.52 134.529 191.401 133.581C191.534 135.514 191.641 137.698 191.723 140.134H186.97C187.1 137.87 187.213 135.535 187.299 133.084ZM185.062 127.157L185.12 127.133C185.063 131.338 184.912 135.313 184.711 139.043C184.515 138.694 184.231 138.402 183.886 138.197C183.542 137.992 183.15 137.881 182.75 137.875H174.335C174.867 135.711 176.069 133.197 178.571 130.938H182.75C184.02 130.938 185.062 129.899 185.062 128.625V127.157ZM87.9375 127.161V128.625C87.9375 129.899 88.9758 130.938 90.25 130.938H94.4287C96.9285 133.197 98.131 135.711 98.6629 137.875H90.25C89.8494 137.88 89.4572 137.991 89.1127 138.196C88.7682 138.4 88.4833 138.691 88.2867 139.041C88.0832 135.315 87.9375 131.34 87.8774 127.136L87.9375 127.161ZM82.2279 126.615C82.9217 126.407 83.6386 126.218 84.4132 126.074C84.8249 126.174 85.1694 126.296 85.5579 126.405C85.5811 128.41 85.6181 130.38 85.6759 132.281H81.6845C81.8602 129.952 82.0522 128.084 82.2279 126.615ZM81.5966 133.581C82.4823 134.529 83.9531 135.301 85.7013 133.079C85.7822 135.532 85.8956 137.866 86.0297 140.134H81.2706C81.3538 137.698 81.4625 135.514 81.5966 133.581ZM81.2359 141.272C82.2395 142.253 83.9808 143.187 86.0875 141.163C86.234 143.559 86.3981 145.832 86.5801 147.983H81.1619C81.1572 145.589 81.1804 143.339 81.2359 141.272ZM81.1665 149.058C82.2349 150.138 84.2236 151.248 86.6148 148.443C86.846 151.121 87.0911 153.593 87.3386 155.836H81.3145C81.2366 153.578 81.1873 151.318 81.1665 149.058ZM81.3399 156.498C82.3343 157.541 84.6098 159.212 87.4611 156.918C87.6184 158.297 87.7802 159.552 87.9352 160.739V161C87.9352 161.18 87.9976 161.342 88.0392 161.516C88.1441 162.291 88.2458 163.017 88.3445 163.692H81.7007C81.5491 161.295 81.4288 158.897 81.3399 156.498ZM82.184 170.25C82.0036 168.136 81.8533 166.099 81.7261 164.117C82.6095 165.142 85.1879 167.45 88.4555 164.439C89.0105 168.169 89.4244 170.25 89.4244 170.25H82.184ZM113.375 142.646L110.517 144.812L111.601 141.286L108.75 139.098L112.277 139.084L113.375 135.562L114.473 139.084L118 139.098L115.151 141.284L116.233 144.812L113.375 142.646ZM118 177.188L121.083 174.875H151.917L155 177.188H118ZM127.796 144.812L124.938 142.646L122.079 144.812L123.164 141.286L120.312 139.098L123.839 139.084L124.938 135.562L126.036 139.084L129.562 139.098L126.713 141.284L127.796 144.812ZM127.25 147.125V170.25H120.312V147.125H127.25ZM139.358 144.812L136.5 142.646L133.642 144.812L134.726 141.286L131.875 139.098L135.402 139.084L136.5 135.562L137.598 139.084L141.125 139.098L138.276 141.284L139.358 144.812ZM138.812 147.125V170.25H134.188V147.125H138.812ZM150.921 144.812L148.062 142.646L145.204 144.812L146.289 141.286L143.438 139.098L146.964 139.084L148.062 135.562L149.161 139.084L152.688 139.098L149.839 141.284L150.921 144.812ZM152.688 147.125V170.25H145.75V147.125H152.688ZM156.767 144.812L157.851 141.286L155 139.098L158.527 139.084L159.625 135.562L160.723 139.084L164.25 139.098L161.401 141.284L162.483 144.812L159.625 142.646L156.767 144.812ZM182.75 154.062H173.5C172.226 154.062 171.188 155.105 171.188 156.375V161C171.188 162.274 172.226 163.312 173.5 163.312H182.364C182.06 165.482 181.706 167.645 181.305 169.799L181.212 170.25H161.938V147.125H166.562V133.25H106.438V147.125H111.062V170.25H91.7809L91.6907 169.799C91.2889 167.645 90.9365 165.482 90.6339 163.312H99.5C100.77 163.312 101.812 162.274 101.812 161V156.375C101.812 155.105 100.77 154.062 99.5 154.062H90.25C89.9935 154.071 89.7403 154.123 89.5007 154.215C89.227 151.666 88.988 149.114 88.7839 146.558C89.1893 146.916 89.7094 147.117 90.25 147.125H99.5C100.77 147.125 101.812 146.087 101.812 144.812V140.188C101.812 139.23 101.216 138.405 100.383 138.055C100.793 135.301 100.432 132.938 99.5694 130.924C100.804 130.884 101.812 129.871 101.812 128.625V124C101.812 122.73 100.77 121.688 99.5 121.688H90.25C89.9229 121.692 89.6005 121.766 89.3042 121.905C89.0498 121.796 88.7908 121.683 88.548 121.583C99.8261 110.988 108.75 118.924 108.75 118.924C107.568 117.325 106.148 115.918 104.539 114.75H108.75V91.625C108.75 86.5375 112.91 82.375 118 82.375H124.938V63.875C124.938 62.6031 125.673 60.8271 126.572 59.9252L130.24 56.2599C131.14 55.3604 132.913 54.625 134.188 54.625H138.812C140.082 54.625 141.86 55.3604 142.76 56.2623L146.428 59.9276C147.327 60.8271 148.062 62.6031 148.062 63.875V82.375H155C160.085 82.375 164.25 86.5375 164.25 91.625V114.75H168.459C166.851 115.918 165.431 117.326 164.25 118.924C164.25 118.924 173.172 110.988 184.447 121.583C184.205 121.683 183.946 121.796 183.694 121.905C183.399 121.763 183.077 121.689 182.75 121.688H173.5C172.226 121.688 171.188 122.73 171.188 124V128.625C171.191 129.224 171.426 129.798 171.844 130.226C172.262 130.655 172.83 130.905 173.428 130.924C172.566 132.938 172.207 135.301 172.612 138.055C171.78 138.405 171.188 139.23 171.188 140.188V144.812C171.188 146.087 172.226 147.125 173.5 147.125H182.75C183.289 147.113 183.807 146.914 184.214 146.561C184.009 149.116 183.771 151.668 183.499 154.217C183.261 154.12 183.007 154.067 182.75 154.062ZM190.811 170.25H183.571C183.571 170.25 183.985 168.169 184.538 164.441C187.807 167.45 190.384 165.142 191.269 164.115C191.142 166.099 190.992 168.136 190.811 170.25ZM191.295 163.692H184.651L184.949 161.55C184.998 161.37 185.062 161.194 185.062 161V160.716C185.217 159.536 185.377 158.285 185.537 156.911C188.386 159.21 190.661 157.538 191.655 156.495C191.57 158.792 191.454 161.18 191.295 163.692ZM191.681 155.839H185.655C185.909 153.591 186.151 151.125 186.381 148.441C188.769 151.246 190.76 150.143 191.827 149.065C191.811 151.199 191.763 153.457 191.681 155.839ZM186.418 147.983C186.598 145.828 186.767 143.561 186.915 141.159C189.017 143.182 190.76 142.253 191.762 141.277C191.815 143.342 191.838 145.589 191.831 147.983H186.418Z" fill="white"/>
<path opacity="0.34" d="M111.111 129.319V124.625H115.395V129.319H117.987V118.106H115.395V122.411H111.111V118.106H108.5V129.319H111.111ZM127.034 117.921C123.639 117.921 121.438 120.436 121.438 123.792C121.438 126.99 123.433 129.5 126.847 129.5C130.207 129.5 132.498 127.27 132.498 123.597C132.498 120.499 130.566 117.921 127.034 117.921ZM126.985 127.488C125.244 127.488 124.187 125.941 124.187 123.743C124.187 121.568 125.209 119.933 126.966 119.933C128.765 119.933 129.75 121.666 129.75 123.678C129.75 125.86 128.744 127.488 126.985 127.488ZM134.563 120.232H137.653V129.319H140.259V120.232H143.404V118.106H134.563V120.232ZM149.109 124.574H153.34V122.511H149.109V120.188H153.594V118.106H146.489V129.319H153.832V127.237H149.109V124.574ZM159.924 118.106H157.313V129.319H164.5V127.189H159.924V118.106ZM141.167 86.6579H131.833C130.548 86.6579 129.5 87.7 129.5 88.9737V107.5C129.5 108.776 130.548 109.816 131.833 109.816H141.167C142.448 109.816 143.5 108.776 143.5 107.5V88.9737C143.5 87.7 142.448 86.6579 141.167 86.6579ZM131.833 77.3947C133.114 77.3947 134.167 76.3526 134.167 75.0789V65.8158C134.167 64.5421 133.114 63.5 131.833 63.5C130.548 63.5 129.5 64.5421 129.5 65.8158V75.0789C129.5 76.3526 130.548 77.3947 131.833 77.3947ZM141.167 63.5C139.881 63.5 138.833 64.5421 138.833 65.8158V75.0789C138.833 76.3526 139.881 77.3947 141.167 77.3947C142.448 77.3947 143.5 76.3526 143.5 75.0789V65.8158C143.5 64.5421 142.448 63.5 141.167 63.5ZM115.5 95.9211H122.5C123.781 95.9211 124.833 94.8813 124.833 93.6053V88.9737C124.833 87.7 123.781 86.6579 122.5 86.6579H115.5C114.214 86.6579 113.167 87.7 113.167 88.9737V93.6053C113.167 94.8789 114.214 95.9211 115.5 95.9211ZM124.833 107.5V102.868C124.833 101.597 123.781 100.553 122.5 100.553H115.5C114.214 100.553 113.167 101.597 113.167 102.868V107.5C113.167 108.776 114.214 109.816 115.5 109.816H122.5C123.781 109.816 124.833 108.776 124.833 107.5ZM150.5 95.9211H157.5C158.781 95.9211 159.833 94.8813 159.833 93.6053V88.9737C159.833 87.7 158.781 86.6579 157.5 86.6579H150.5C149.214 86.6579 148.167 87.7 148.167 88.9737V93.6053C148.167 94.8789 149.214 95.9211 150.5 95.9211ZM150.5 109.816H157.5C158.781 109.816 159.833 108.776 159.833 107.5V102.868C159.833 101.597 158.781 100.553 157.5 100.553H150.5C149.214 100.553 148.167 101.597 148.167 102.868V107.5C148.167 108.776 149.214 109.816 150.5 109.816Z" fill="white"/>
</svg>
